<svg width="234" height="15" viewBox="0 0 234 15" fill="none" xmlns="http://www.w3.org/2000/svg">
<path d="M233.881 0.0524902H228.979V14.876H233.881V0.0524902Z" fill="#202024"/>
<path d="M225.864 0.0524902H221.11V14.876H225.864V0.0524902Z" fill="#202024"/>
<path d="M217.847 0.0524902H213.242V14.876H217.847V0.0524902Z" fill="#202024"/>
<path d="M209.831 0.0524902H205.372V14.876H209.831V0.0524902Z" fill="#202024"/>
<path d="M201.81 0.0524902H197.501V14.876H201.81V0.0524902Z" fill="#202024"/>
<path d="M193.797 0.0524902H189.634V14.876H193.797V0.0524902Z" fill="#202024"/>
<path d="M185.777 0.0524902H181.763V14.876H185.777V0.0524902Z" fill="#202024"/>
<path d="M177.76 0.0524902H173.893V14.876H177.76V0.0524902Z" fill="#202024"/>
<path d="M169.74 0.0524902H166.023V14.876H169.74V0.0524902Z" fill="#202024"/>
<path d="M161.727 0.0524902H158.156V14.876H161.727V0.0524902Z" fill="#202024"/>
<path d="M153.707 0.0524902H150.285V14.876H153.707V0.0524902Z" fill="#202024"/>
<path d="M145.69 0.0524902H142.415V14.876H145.69V0.0524902Z" fill="#202024"/>
<path d="M137.673 0.0524902H134.548V14.876H137.673V0.0524902Z" fill="#202024"/>
<path d="M129.656 0.0524902H126.677V14.876H129.656V0.0524902Z" fill="#202024"/>
<path d="M121.636 0.0524902H118.807V14.876H121.636V0.0524902Z" fill="#202024"/>
<path d="M113.623 0.0524902H110.939V14.876H113.623V0.0524902Z" fill="#202024"/>
<path d="M105.603 0.0524902H103.069V14.876H105.603V0.0524902Z" fill="#202024"/>
<path d="M97.5857 0.0524902H95.1985V14.876H97.5857V0.0524902Z" fill="#202024"/>
<path d="M89.5723 0.0524902H87.3314V14.876H89.5723V0.0524902Z" fill="#202024"/>
<path d="M81.5517 0.0524902H79.4606V14.876H81.5517V0.0524902Z" fill="#202024"/>
<path d="M73.5357 0.0524902H71.5908V14.876H73.5357V0.0524902Z" fill="#202024"/>
<path d="M65.5185 0.0524902H63.7233V14.876H65.5185V0.0524902Z" fill="#202024"/>
<path d="M57.5018 0.0524902H55.8529V14.876H57.5018V0.0524902Z" fill="#202024"/>
<path d="M49.482 0.0524902H47.9827V14.876H49.482V0.0524902Z" fill="#202024"/>
<path d="M41.4684 0.0524902H40.1155V14.876H41.4684V0.0524902Z" fill="#202024"/>
<path d="M33.4481 0.0524902H32.2448V14.876H33.4481V0.0524902Z" fill="#202024"/>
<path d="M25.4315 0.0524902H24.3745V14.876H25.4315V0.0524902Z" fill="#202024"/>
<path d="M17.4147 0.0524902H16.5073V14.876H17.4147V0.0524902Z" fill="#202024"/>
<path d="M9.39814 0.0524902H8.63708V14.876H9.39814V0.0524902Z" fill="#202024"/>
<path d="M1.37786 0.0524902H0.766479V14.876H1.37786V0.0524902Z" fill="#202024"/>
</svg>
